<?xml version="1.0" encoding="iso-8859-1"?>
<!-- Uploaded to: SVG Repo, www.svgrepo.com, Generator: SVG Repo Mixer Tools -->
<svg fill="#000000" height="800px" width="800px" version="1.1" id="Layer_1" xmlns="http://www.w3.org/2000/svg" xmlns:xlink="http://www.w3.org/1999/xlink" 
	 viewBox="0 0 496 496" xml:space="preserve">
<g>
	<g>
		<g>
			<path d="M480,480V344H344V208H152v136H16v136H0v16h496v-16H480z M152,480H32V360h120V480z M328,440h-16v16h16v24H168v-24h128v-16
				H168V224h160V440z M464,480H344V360h120V480z"/>
			<polygon points="240,328 256,328 256,240 224,240 224,256 240,256 			"/>
			<path d="M120,440H87.552l18.856-11.312C114.792,423.648,120,414.456,120,404c0-15.44-12.56-28-28-28s-28,12.56-28,28v12h16v-12
				c0-6.616,5.384-12,12-12c6.616,0,12,5.384,12,12.68c0,4.184-2.232,8.136-5.832,10.288L64,435.472V456h56V440z"/>
			<path d="M432,432c0-6.144-2.32-11.752-6.128-16c3.808-4.248,6.128-9.856,6.128-16c0-13.232-10.768-24-24-24h-32v16h32
				c4.408,0,8,3.584,8,8c0,4.416-3.592,8-8,8h-16v16h16c4.408,0,8,3.584,8,8c0,4.416-3.592,8-8,8h-32v16h32
				C421.232,456,432,445.232,432,432z"/>
			<path d="M122.096,103.176L154.4,192h187.2l32.304-88.824C384.272,100.528,392,91.184,392,80c0-13.232-10.768-24-24-24
				s-24,10.768-24,24c0,2.28,0.424,4.448,1.024,6.544l-30.888,15.44c-2.632,1.32-5.584,2.016-8.528,2.016
				c-7.536,0-14.384-4.456-17.448-11.336l-23.056-51.872C269.36,36.456,272,30.536,272,24c0-13.232-10.768-24-24-24
				s-24,10.768-24,24c0,6.536,2.64,12.456,6.896,16.792L207.84,92.664c-3.064,6.88-9.912,11.336-17.448,11.336
				c-2.952,0-5.904-0.696-8.536-2.016l-30.88-15.44C151.576,84.448,152,82.28,152,80c0-13.232-10.768-24-24-24s-24,10.768-24,24
				C104,91.184,111.728,100.528,122.096,103.176z M368,72c4.408,0,8,3.584,8,8s-3.592,8-8,8c-4.408,0-8-3.584-8-8S363.592,72,368,72
				z M248,16c4.408,0,8,3.584,8,8s-3.592,8-8,8c-4.408,0-8-3.584-8-8S243.592,16,248,16z M141.592,99.744l33.104,16.552
				c4.848,2.424,10.272,3.704,15.696,3.704c13.848,0,26.44-8.176,32.064-20.832l22.864-51.432C246.208,47.832,247.08,48,248,48
				s1.792-0.168,2.68-0.272l22.864,51.432c5.624,12.664,18.208,20.84,32.064,20.84c5.424,0,10.848-1.28,15.688-3.704L354.4,99.744
				c0.968,0.672,2.024,1.208,3.088,1.728L342.032,144H288v16h48.216l-5.816,16H165.6l-5.816-16H208v-16h-54.032l-15.464-42.528
				C139.568,100.952,140.624,100.408,141.592,99.744z M128,72c4.408,0,8,3.584,8,8s-3.592,8-8,8s-8-3.584-8-8S123.592,72,128,72z"/>
			<path d="M248,168c13.456,0,24-14.056,24-32c0-17.944-10.544-32-24-32s-24,14.056-24,32C224,153.944,234.544,168,248,168z
				 M248,120c3.264,0,8,6.232,8,16s-4.736,16-8,16c-3.264,0-8-6.232-8-16S244.736,120,248,120z"/>
		</g>
	</g>
</g>
</svg>